# xmcd
#
# Track frame offsets: 
#        150
#        20734
#        31836
#        58581
#        82368
#        115802
#        138464
#        187247
#        204513
#        219262
#        247286
#        270552
#        303333
#
# Disc length: 4476 seconds
#
# Revision: 0
# Processed by: cddbd v1.5.2PL0 Copyright (c) Steve Scherf et al.
# Submitted via: ExactAudioCopy v0.99pb4
#
DISCID=c5117a0d
DTITLE=Ralph de Jongh - Live At The Saint Izaire Blues Festival
DYEAR=2007
DGENRE=Blues
TTITLE0=Harry
TTITLE1=Windflowers
TTITLE2=Stop Breaking Down
TTITLE3=Preaching Blues
TTITLE4=Sympathy For The Devil
TTITLE5=Ride and Sing
TTITLE6=Dust My Broom
TTITLE7=Shake Your Moneymaker
TTITLE8=My Friend
TTITLE9=Sweet Home Chicago
TTITLE10=Bo Diddley
TTITLE11=Crawling Kingsnake
TTITLE12=Hound Dog
EXTD=
EXTT0=
EXTT1=
EXTT2=
EXTT3=
EXTT4=
EXTT5=
EXTT6=
EXTT7=
EXTT8=
EXTT9=
EXTT10=
EXTT11=
EXTT12=
PLAYORDER=
